0
SECTION
2
HEADER
9
$INSUNITS
70
1
9
$ACADVER
1
AC1014
9
$HANDSEED
5
FFFF
0
ENDSEC
0
SECTION
2
TABLES
0
TABLE
2
VPORT
5
8
100
AcDbSymbolTable
0
ENDTAB
0
TABLE
2
LTYPE
5
5
100
AcDbSymbolTable
0
LTYPE
5
14
100
AcDbSymbolTableRecord
100
AcDbLinetypeTableRecord
2
BYBLOCK
70
0
0
LTYPE
5
15
100
AcDbSymbolTableRecord
100
AcDbLinetypeTableRecord
2
BYLAYER
70
0
0
ENDTAB
0
TABLE
2
LAYER
5
2
100
AcDbSymbolTable
70
2
0
LAYER
5
50
100
AcDbSymbolTableRecord
100
AcDbLayerTableRecord
2
0
70
0
6
CONTINUOUS
0
ENDTAB
0
TABLE
2
STYLE
5
3
100
AcDbSymbolTable
70
1
0
STYLE
5
11
100
AcDbSymbolTableRecord
100
AcDbTextStyleTableRecord
2
STANDARD
70
0
0
ENDTAB
0
TABLE
2
VIEW
5
6
100
AcDbSymbolTable
70
0
0
ENDTAB
0
TABLE
2
UCS
5
7
100
AcDbSymbolTable
70
0
0
ENDTAB
0
TABLE
2
APPID
5
9
100
AcDbSymbolTable
70
2
0
APPID
5
12
100
AcDbSymbolTableRecord
100
AcDbRegAppTableRecord
2
ACAD
70
0
0
ENDTAB
0
TABLE
2
DIMSTYLE
5
A
100
AcDbSymbolTable
70
1
0
ENDTAB
0
TABLE
2
BLOCK_RECORD
5
1
100
AcDbSymbolTable
70
1
0
BLOCK_RECORD
5
1F
100
AcDbSymbolTableRecord
100
AcDbBlockTableRecord
2
*MODEL_SPACE
0
BLOCK_RECORD
5
1B
100
AcDbSymbolTableRecord
100
AcDbBlockTableRecord
2
*PAPER_SPACE
0
ENDTAB
0
ENDSEC
0
SECTION
2
BLOCKS
0
BLOCK
5
20
100
AcDbEntity
100
AcDbBlockBegin
2
*MODEL_SPACE
0
ENDBLK
5
21
100
AcDbEntity
100
AcDbBlockEnd
0
BLOCK
5
1C
100
AcDbEntity
100
AcDbBlockBegin
2
*PAPER_SPACE
0
ENDBLK
5
1D
100
AcDbEntity
100
AcDbBlockEnd
0
ENDSEC
0
SECTION
2
ENTITIES
0
CIRCLE
5
100
100
AcDbEntity
8
0
100
AcDbCircle
10
0
20
0
30
0
40
1.9999999999999996
0
LINE
5
101
100
AcDbEntity
8
0
100
AcDbLine
10
1.4999999788509115
20
0.060999999999999895
30
0
11
1.9999999788509106
21
0.060999999999999895
31
0
0
LINE
5
102
100
AcDbEntity
8
0
100
AcDbLine
10
1.9999999788509106
20
0.060999999999999895
30
0
11
1.9999999788509106
21
-0.060999999999999895
31
0
0
LINE
5
103
100
AcDbEntity
8
0
100
AcDbLine
10
1.9999999788509106
20
-0.060999999999999895
30
0
11
1.4999999788509115
21
-0.060999999999999895
31
0
0
LINE
5
104
100
AcDbEntity
8
0
100
AcDbLine
10
1.4999999788509115
20
-0.060999999999999895
30
0
11
1.4999999788509115
21
0.060999999999999895
31
0
0
LINE
5
105
100
AcDbEntity
8
0
100
AcDbLine
10
1.4999999788509115
20
0.060999999999999895
30
0
11
1.9999999788509106
21
-0.060999999999999895
31
0
0
LINE
5
106
100
AcDbEntity
8
0
100
AcDbLine
10
1.9999999788509106
20
0.060999999999999895
30
0
11
1.4999999788509115
21
-0.060999999999999895
31
0
0
LINE
5
107
100
AcDbEntity
8
0
100
AcDbLine
10
-1.9999999788509117
20
0.070999999879148012
30
0
11
-1.4999999788509133
21
0.070999999879147929
31
0
0
LINE
5
108
100
AcDbEntity
8
0
100
AcDbLine
10
-1.4999999788509133
20
0.070999999879147929
30
0
11
-1.4999999788509133
21
-0.05100000012085177
31
0
0
LINE
5
109
100
AcDbEntity
8
0
100
AcDbLine
10
-1.4999999788509133
20
-0.05100000012085177
30
0
11
-1.9999999788509117
21
-0.051000000120851693
31
0
0
LINE
5
110
100
AcDbEntity
8
0
100
AcDbLine
10
-1.9999999788509117
20
-0.051000000120851693
30
0
11
-1.9999999788509117
21
0.070999999879148012
31
0
0
LINE
5
111
100
AcDbEntity
8
0
100
AcDbLine
10
-1.9999999788509117
20
0.070999999879148012
30
0
11
-1.4999999788509133
21
-0.05100000012085177
31
0
0
LINE
5
112
100
AcDbEntity
8
0
100
AcDbLine
10
-1.4999999788509133
20
0.070999999879147929
30
0
11
-1.9999999788509117
21
-0.051000000120851693
31
0
0
CIRCLE
5
113
100
AcDbEntity
8
0
100
AcDbCircle
10
-0.60000001914857948
20
-1.4000000446800187
30
0
40
0.17499999999999993
0
CIRCLE
5
114
100
AcDbEntity
8
0
100
AcDbCircle
10
-1.3000000191485797
20
-0.70000004468001864
30
0
40
0.17499999999999993
0
CIRCLE
5
115
100
AcDbEntity
8
0
100
AcDbCircle
10
-1.3000000191485797
20
0.59999995531998151
30
0
40
0.17499999999999993
0
CIRCLE
5
116
100
AcDbEntity
8
0
100
AcDbCircle
10
-0.6000000191485787
20
1.3000000414885873
30
0
40
0.17499999999999993
0
CIRCLE
5
117
100
AcDbEntity
8
0
100
AcDbCircle
10
0.60000001914857914
20
1.3000000414885902
30
0
40
0.17499999999999993
0
CIRCLE
5
118
100
AcDbEntity
8
0
100
AcDbCircle
10
1.2999999808514209
20
0.59999995531998151
30
0
40
0.17499999999999993
0
CIRCLE
5
119
100
AcDbEntity
8
0
100
AcDbCircle
10
1.2999999808514209
20
-0.70000004468001864
30
0
40
0.17499999999999993
0
CIRCLE
5
120
100
AcDbEntity
8
0
100
AcDbCircle
10
0.6000000191485787
20
-1.4000000446800169
30
0
40
0.17499999999999993
0
LINE
5
121
100
AcDbEntity
8
0
100
AcDbLine
10
-0.062608709241792931
20
1.5012879871510687
30
0
11
0.059391290758207031
21
1.5012879871510687
31
0
0
LINE
5
122
100
AcDbEntity
8
0
100
AcDbLine
10
0.059391290758207031
20
1.5012879871510687
30
0
11
0.059391290758207031
21
2.0012879871510685
31
0
0
LINE
5
123
100
AcDbEntity
8
0
100
AcDbLine
10
0.059391290758207031
20
2.0012879871510685
30
0
11
-0.062608709241792931
21
2.0012879871510685
31
0
0
LINE
5
124
100
AcDbEntity
8
0
100
AcDbLine
10
-0.062608709241792931
20
2.0012879871510685
30
0
11
-0.062608709241792931
21
1.5012879871510687
31
0
0
LINE
5
125
100
AcDbEntity
8
0
100
AcDbLine
10
-0.062608709241792931
20
1.5012879871510687
30
0
11
0.059391290758207031
21
2.0012879871510685
31
0
0
LINE
5
126
100
AcDbEntity
8
0
100
AcDbLine
10
0.059391290758207031
20
1.5012879871510687
30
0
11
-0.062608709241792931
21
2.0012879871510685
31
0
0
LINE
5
127
100
AcDbEntity
8
0
100
AcDbLine
10
-0.060352214017929257
20
-1.5012417263948445
30
0
11
0.061647785982070713
21
-1.5012417263948445
31
0
0
LINE
5
128
100
AcDbEntity
8
0
100
AcDbLine
10
0.061647785982070713
20
-1.5012417263948445
30
0
11
0.061647785982070713
21
-2.0012417263948445
31
0
0
LINE
5
129
100
AcDbEntity
8
0
100
AcDbLine
10
0.061647785982070713
20
-2.0012417263948445
30
0
11
-0.060352214017929257
21
-2.0012417263948445
31
0
0
LINE
5
130
100
AcDbEntity
8
0
100
AcDbLine
10
-0.060352214017929257
20
-2.0012417263948445
30
0
11
-0.060352214017929257
21
-1.5012417263948445
31
0
0
LINE
5
131
100
AcDbEntity
8
0
100
AcDbLine
10
-0.060352214017929257
20
-1.5012417263948445
30
0
11
0.061647785982070713
21
-2.0012417263948445
31
0
0
LINE
5
132
100
AcDbEntity
8
0
100
AcDbLine
10
0.061647785982070713
20
-1.5012417263948445
30
0
11
-0.060352214017929257
21
-2.0012417263948445
31
0
0
LINE
5
133
100
AcDbEntity
8
0
100
AcDbLine
10
-4.1557099978608445
20
-2.0832881121634581
30
0
11
-4.1557099978608445
21
2.6086698823506862
31
0
0
LINE
5
134
100
AcDbEntity
8
0
100
AcDbLine
10
-4.1557099978608445
20
2.6086698823506862
30
0
11
-3.2015887757967567
21
2.6086698823506862
31
0
0
LINE
5
135
100
AcDbEntity
8
0
100
AcDbLine
10
-3.2015887757967567
20
2.6086698823506862
30
0
11
-3.2015887757967567
21
-2.3913301176493129
31
0
0
ARC
5
136
100
AcDbEntity
8
0
100
AcDbCircle
10
-3.1557099659465466
20
-0.57524280608177214
30
0
40
1.8166667246443085
100
AcDbArc
50
236.60151153201278
51
268.55287618915816
0
LINE
5
137
100
AcDbEntity
8
0
100
AcDbLine
10
-3.7028828989289471
20
-1.8248042956562125
30
0
11
-3.2028828989289471
21
-1.8248042956562125
31
0
0
LINE
5
138
100
AcDbEntity
8
0
100
AcDbLine
10
-3.2028828989289471
20
-1.8248042956562125
30
0
11
-3.2028828989289471
21
-1.9468042956562124
31
0
0
LINE
5
139
100
AcDbEntity
8
0
100
AcDbLine
10
-3.2028828989289471
20
-1.9468042956562124
30
0
11
-3.7028828989289471
21
-1.9468042956562124
31
0
0
LINE
5
140
100
AcDbEntity
8
0
100
AcDbLine
10
-3.7028828989289471
20
-1.9468042956562124
30
0
11
-3.7028828989289471
21
-1.8248042956562125
31
0
0
LINE
5
141
100
AcDbEntity
8
0
100
AcDbLine
10
-3.7028828989289471
20
-1.8248042956562125
30
0
11
-3.2028828989289471
21
-1.9468042956562124
31
0
0
LINE
5
142
100
AcDbEntity
8
0
100
AcDbLine
10
-3.2028828989289471
20
-1.8248042956562125
30
0
11
-3.7028828989289471
21
-1.9468042956562124
31
0
0
LINE
5
143
100
AcDbEntity
8
0
100
AcDbLine
10
-4.1545780109051496
20
0.060833412543817397
30
0
11
-3.65457801090515
21
0.060833412543816599
31
0
0
LINE
5
144
100
AcDbEntity
8
0
100
AcDbLine
10
-3.65457801090515
20
0.060833412543816599
30
0
11
-3.65457801090515
21
-0.061166587456182475
31
0
0
LINE
5
145
100
AcDbEntity
8
0
100
AcDbLine
10
-3.65457801090515
20
-0.061166587456182475
30
0
11
-4.1545780109051496
21
-0.061166587456182475
31
0
0
LINE
5
146
100
AcDbEntity
8
0
100
AcDbLine
10
-4.1545780109051496
20
-0.061166587456182475
30
0
11
-4.1545780109051496
21
0.060833412543817397
31
0
0
LINE
5
147
100
AcDbEntity
8
0
100
AcDbLine
10
-4.1545780109051496
20
0.060833412543817397
30
0
11
-3.65457801090515
21
-0.061166587456182475
31
0
0
LINE
5
148
100
AcDbEntity
8
0
100
AcDbLine
10
-3.65457801090515
20
0.060833412543816599
30
0
11
-4.1545780109051496
21
-0.061166587456182475
31
0
0
LINE
5
149
100
AcDbEntity
8
0
100
AcDbLine
10
-3.7014371455730499
20
2.2855169521025713
30
0
11
-3.2014371455730499
21
2.2855169521025713
31
0
0
LINE
5
150
100
AcDbEntity
8
0
100
AcDbLine
10
-3.2014371455730499
20
2.2855169521025713
30
0
11
-3.2014371455730499
21
2.1635169521025714
31
0
0
LINE
5
151
100
AcDbEntity
8
0
100
AcDbLine
10
-3.2014371455730499
20
2.1635169521025714
30
0
11
-3.7014371455730499
21
2.1635169521025714
31
0
0
LINE
5
152
100
AcDbEntity
8
0
100
AcDbLine
10
-3.7014371455730499
20
2.1635169521025714
30
0
11
-3.7014371455730499
21
2.2855169521025713
31
0
0
LINE
5
153
100
AcDbEntity
8
0
100
AcDbLine
10
-3.7014371455730499
20
2.2855169521025713
30
0
11
-3.2014371455730499
21
2.1635169521025714
31
0
0
LINE
5
154
100
AcDbEntity
8
0
100
AcDbLine
10
-3.2014371455730499
20
2.2855169521025713
30
0
11
-3.7014371455730499
21
2.1635169521025714
31
0
0
LWPOLYLINE
5
155
100
AcDbEntity
8
0
100
AcDbPolyline
90
4
70
1
43
0.0
10
-1.2892250505581955
20
0.16809544686364933
10
1.1775718394602974
20
0.16809544686364961
10
1.1775718394602974
20
-0.33190455313635037
10
-1.2892250505581955
20
-0.33190455313635064
0
SPLINE
5
156
100
AcDbEntity
8
0
100
AcDbSpline
70
1064
71
5
72
26
73
20
74
0
42
0.000000001
43
0.0000000001
44
0.0000000001
40
0
40
0
40
0
40
0
40
0
40
0
40
0.066666666666666666
40
0.13333333333333333
40
0.20000000000000001
40
0.26666666666666666
40
0.33333333333333331
40
0.39999999999999997
40
0.46666666666666662
40
0.53333333333333333
40
0.59999999999999998
40
0.66666666666666663
40
0.73333333333333328
40
0.79999999999999993
40
0.86666666666666659
40
0.93333333333333324
40
1
40
1
40
1
40
1
40
1
40
1
10
1.0000000319142979
20
0.40000001276571917
30
0
10
0.9655132423596674
20
0.42227567525069892
30
0
10
0.89798724929003193
20
0.46400383004065077
30
0
10
0.80104092078580158
20
0.51812672114890257
30
0
10
0.68052846621878615
20
0.57322726697541837
30
0
10
0.54457285400821698
20
0.6133493144904707
30
0
10
0.42295170307095054
20
0.62505891893881815
30
0
10
0.31438573507984796
20
0.61015360209957248
30
0
10
0.21621028900911005
20
0.57266497682877426
30
0
10
0.12366650017763625
20
0.52006779022453087
30
0
10
0.030711189857079893
20
0.46197243815333011
30
0
10
-0.068873516299895229
20
0.40833904867372983
30
0
10
-0.18058185919909853
20
0.36804564890714664
30
0
10
-0.30794362896857808
20
0.34694074191985774
30
0
10
-0.45274317360109545
20
0.34814648539040871
30
0
10
-0.6156639576389682
20
0.37302321554979451
30
0
10
-0.76049364672799924
20
0.41203529622894292
30
0
10
-0.87714658389665667
20
0.45191685548593136
30
0
10
-0.95845834825532883
20
0.48319117707349396
30
0
10
-1.0000000319142979
20
0.50000001595714894
30
0
0
ENDSEC
0
SECTION
2
OBJECTS
0
DICTIONARY
5
C
100
AcDbDictionary
3
ACAD_GROUP
350
D
3
ACAD_MLINESTYLE
350
17
0
DICTIONARY
5
D
100
AcDbDictionary
0
DICTIONARY
5
1A
330
C
100
AcDbDictionary
0
DICTIONARY
5
17
100
AcDbDictionary
0
ENDSEC
0
EOF
